# ProBuilder 5.0.6
# https://unity3d.com/unity/features/worldbuilding/probuilder
# 12.11.2023 20:21:34

mtllib ./barTableMixer.mtl
o barTableMixer

g barTableMixer
v -3.469386E-07 0.8997303 1.314193E-07
v -0.1897291 0.8997305 -2.032935
v -1.199372 0.8997301 -1.903403
v -0.996346 0.8997299 0.11299
v -1.199371 -1.844601E-07 -1.903403
v -0.1897287 2.237812E-07 -2.032935
v 0 0 0
v -0.9963456 -3.333553E-07 0.1129899

vt -7.096392E-09 -7.140469E-09
vt 0.1897287 -2.032935
vt 1.199371 -1.903403
vt 0.9963456 0.1129899
vt -1.199371 -1.903403
vt -0.1897287 -2.032935
vt -0.9963456 0.1129899
vt 0.9474096 -3.494119E-07
vt -0.07050827 5.882937E-08
vt 0.9474099 0.8997299
vt -0.07050791 0.8997303
vt 2.041769 2.237812E-07
vt 2.041769 0.8997305
vt -9.861188E-08 0.8997303
vt -1.002732 -3.333553E-07
vt -1.002732 0.8997299
vt 0.01260655 7.814982E-08
vt -2.013982 2.27045E-07
vt 0.01260665 0.8997303
vt -2.013982 0.8997305

vn -3.692172E-07 1 1.387066E-07
vn 3.540621E-07 -1 -1.261907E-07
vn -0.1272518 8.083688E-08 -0.9918705
vn 0.9956732 4.038972E-07 -0.0929237
vn 0.1126821 -1.016844E-07 0.9936311
vn -0.9949692 -4.104164E-07 0.100181

usemtl ProBuilderDefault
f 4/4/1 1/1/1 2/2/1 3/3/1
f 5/5/2 6/6/2 7/1/2 8/7/2
f 3/10/3 2/11/3 6/9/3 5/8/3
f 2/13/4 1/14/4 7/1/4 6/12/4
f 1/14/5 4/16/5 8/15/5 7/1/5
f 4/19/6 3/20/6 5/18/6 8/17/6

